<svg width="114" height="74" viewBox="0 0 114 74" fill="none" xmlns="http://www.w3.org/2000/svg">
<path d="M95.7551 0H17.6939C7.92182 0 0 7.92182 0 17.6939V56.2041C0 65.9761 7.92182 73.898 17.6939 73.898H95.7551C105.527 73.898 113.449 65.9761 113.449 56.2041V17.6939C113.449 7.92182 105.527 0 95.7551 0Z" fill="#EBE4DF"/>
<path d="M55.5318 26.276L56.6112 28.8218C56.8412 29.362 56.9026 29.9591 56.7874 30.5349C56.6723 31.1106 56.3859 31.6381 55.9659 32.0483L53.9488 33.9624C53.8353 34.0676 53.7492 34.1989 53.6978 34.3449C53.6465 34.4909 53.6315 34.6472 53.6542 34.8003C53.8683 36.0345 54.3068 37.2191 54.9479 38.2953C55.5839 39.4051 56.4084 40.3955 57.3845 41.2221C57.5113 41.3254 57.6623 41.3946 57.8233 41.4232C57.9843 41.4518 58.15 41.4388 58.3046 41.3855L60.6568 40.6007C61.19 40.4273 61.7655 40.4341 62.2944 40.6201C62.8233 40.8061 63.2764 41.1611 63.5836 41.6301L65.1313 43.9032C65.506 44.458 65.6782 45.1249 65.619 45.7917C65.5599 46.4585 65.273 47.0846 64.8066 47.5648L63.7793 48.5963C63.2922 49.096 62.6767 49.4516 62.0006 49.624C61.3245 49.7964 60.6139 49.779 59.947 49.5736C56.7552 48.5793 53.8239 45.6268 51.1531 40.7163C48.4824 35.8057 47.537 31.6324 48.3169 28.1963C48.4665 27.5024 48.794 26.8593 49.2671 26.3302C49.7403 25.801 50.3428 25.4039 51.0157 25.1779L52.3688 24.746C52.9918 24.5569 53.6632 24.6093 54.2494 24.8928C54.8355 25.1763 55.2934 25.6701 55.5318 26.276Z" fill="#A0576F"/>
</svg>
