<svg width="115" height="75" viewBox="0 0 115 75" fill="none" xmlns="http://www.w3.org/2000/svg">
<path d="M96.5305 0.897949H18.4693C8.69721 0.897949 0.775391 8.81977 0.775391 18.5918V57.102C0.775391 66.8741 8.69721 74.7959 18.4693 74.7959H96.5305C106.303 74.7959 114.224 66.8741 114.224 57.102V18.5918C114.224 8.81977 106.303 0.897949 96.5305 0.897949Z" fill="#EBE4DF"/>
<g clip-path="url(#clip0_2174_14020)">
<path d="M60.3273 35.6722L69.434 25.0864H67.276L59.3686 34.2779L53.0531 25.0864H45.7688L55.3192 38.9856L45.7688 50.0864H47.9269L56.2773 40.3799L62.947 50.0864H70.2312L60.3267 35.6722H60.3273ZM57.3714 39.1081L56.4038 37.724L48.7045 26.711H52.0193L58.2327 35.5989L59.2003 36.9829L67.277 48.5357H63.9622L57.3714 39.1086V39.1081Z" fill="#A0576F"/>
</g>
<defs>
<clipPath id="clip0_2174_14020">
<rect width="25" height="25" fill="white" transform="translate(45.5 25.0864)"/>
</clipPath>
</defs>
</svg>
