<svg width="114" height="74" viewBox="0 0 114 74" fill="none" xmlns="http://www.w3.org/2000/svg">
<path d="M96.3061 0H18.2449C8.47284 0 0.551025 7.92182 0.551025 17.6939V56.2041C0.551025 65.9761 8.47284 73.898 18.2449 73.898H96.3061C106.078 73.898 114 65.9761 114 56.2041V17.6939C114 7.92182 106.078 0 96.3061 0Z" fill="#EBE4DF"/>
<path d="M57.0282 23.9389C56.9809 23.9377 56.9336 23.9398 56.8866 23.9451C55.4149 24.1116 53.8683 26.8594 53.0752 30.9748H60.9854C60.1923 26.8615 58.6446 24.1106 57.1739 23.9451C57.1255 23.9396 57.0769 23.9375 57.0282 23.9389ZM53.3853 24.4697C51.7136 24.9659 50.1611 25.799 48.8235 26.9177C47.4858 28.0364 46.3913 29.4171 45.6073 30.9748H51.1236C51.4557 28.6823 52.2227 26.4744 53.3833 24.4697H53.3853ZM60.6763 24.4697C61.8365 26.4745 62.6031 28.6824 62.9348 30.9748H68.4512C67.6673 29.4172 66.5729 28.0366 65.2355 26.9179C63.898 25.7992 62.3457 24.966 60.6742 24.4697H60.6763ZM51.0425 32.9117C50.8569 32.9213 50.6805 32.9953 50.5436 33.1208C50.4066 33.2464 50.3177 33.4157 50.292 33.5997L49.7664 36.8991L48.8099 34.6874C48.7479 34.5444 48.6454 34.4228 48.5151 34.3373C48.3849 34.2518 48.2325 34.2063 48.0767 34.2063C47.9208 34.2063 47.7684 34.2518 47.6382 34.3373C47.5079 34.4228 47.4054 34.5444 47.3434 34.6874L46.3869 36.8991L45.8613 33.5997C45.8448 33.496 45.8081 33.3966 45.7532 33.3072C45.6983 33.2177 45.6263 33.1399 45.5414 33.0782C45.4564 33.0166 45.3601 32.9722 45.2581 32.9478C45.156 32.9233 45.0501 32.9192 44.9464 32.9357C44.8427 32.9522 44.7433 32.9889 44.6538 33.0438C44.5644 33.0987 44.4866 33.1706 44.4249 33.2556C44.3632 33.3405 44.3189 33.4368 44.2945 33.5389C44.27 33.641 44.2659 33.7469 44.2824 33.8506L45.2368 39.8634C45.2641 40.0341 45.3461 40.1914 45.4704 40.3116C45.5948 40.4318 45.7547 40.5085 45.9263 40.5301C46.0979 40.5517 46.2719 40.517 46.4221 40.4313C46.5723 40.3456 46.6907 40.2135 46.7595 40.0549L48.073 37.0178L49.3865 40.0549C49.4553 40.2135 49.5737 40.3456 49.7239 40.4313C49.8741 40.517 50.0481 40.5517 50.2197 40.5301C50.3913 40.5085 50.5512 40.4318 50.6756 40.3116C50.7999 40.1914 50.8819 40.0341 50.9092 39.8634L51.8689 33.8506C51.8898 33.7318 51.8836 33.6099 51.8507 33.4939C51.8178 33.378 51.7592 33.2709 51.6791 33.1808C51.599 33.0907 51.4996 33.0199 51.3882 32.9737C51.2769 32.9274 51.1566 32.907 51.0362 32.9138L51.0425 32.9117ZM59.9935 32.9117C59.8079 32.9213 59.6315 32.9953 59.4946 33.1208C59.3576 33.2464 59.2687 33.4157 59.2431 33.5997L58.7174 36.8991L57.7609 34.6874C57.6989 34.5444 57.5964 34.4228 57.4662 34.3373C57.3359 34.2518 57.1835 34.2063 57.0277 34.2063C56.8719 34.2063 56.7195 34.2518 56.5892 34.3373C56.4589 34.4228 56.3565 34.5444 56.2944 34.6874L55.3379 36.8991L54.8123 33.5997C54.7958 33.496 54.7591 33.3966 54.7042 33.3072C54.6493 33.2177 54.5773 33.1399 54.4924 33.0782C54.4074 33.0166 54.3112 32.9722 54.2091 32.9478C54.107 32.9233 54.0011 32.9192 53.8974 32.9357C53.7937 32.9522 53.6943 32.9889 53.6049 33.0438C53.5154 33.0987 53.4376 33.1706 53.3759 33.2556C53.3143 33.3405 53.2699 33.4368 53.2455 33.5389C53.221 33.641 53.2169 33.7469 53.2334 33.8506L54.193 39.8634C54.2204 40.0341 54.3023 40.1914 54.4267 40.3116C54.551 40.4318 54.711 40.5085 54.8826 40.5301C55.0542 40.5517 55.2281 40.517 55.3783 40.4313C55.5286 40.3456 55.647 40.2135 55.7157 40.0549L57.0292 37.0178L58.3427 40.0549C58.4115 40.2135 58.5299 40.3456 58.6801 40.4313C58.8304 40.517 59.0043 40.5517 59.1759 40.5301C59.3475 40.5085 59.5075 40.4318 59.6318 40.3116C59.7561 40.1914 59.8381 40.0341 59.8655 39.8634L60.8251 33.8506C60.846 33.7318 60.8398 33.6099 60.8069 33.4939C60.7741 33.378 60.7154 33.2709 60.6353 33.1808C60.5552 33.0907 60.4558 33.0199 60.3445 32.9737C60.2331 32.9274 60.1128 32.907 59.9924 32.9138L59.9935 32.9117ZM68.9445 32.9117C68.759 32.9213 68.5826 32.9953 68.4456 33.1208C68.3087 33.2464 68.2197 33.4157 68.1941 33.5997L67.6685 36.8991L66.712 34.6874C66.6499 34.5444 66.5475 34.4228 66.4172 34.3373C66.2869 34.2518 66.1345 34.2063 65.9787 34.2063C65.8229 34.2063 65.6705 34.2518 65.5402 34.3373C65.4099 34.4228 65.3075 34.5444 65.2454 34.6874L64.2889 36.8991L63.7633 33.5997C63.7469 33.496 63.7101 33.3966 63.6552 33.3072C63.6003 33.2177 63.5284 33.1399 63.4434 33.0782C63.3585 33.0166 63.2622 32.9722 63.1601 32.9478C63.058 32.9233 62.9521 32.9192 62.8484 32.9357C62.7448 32.9522 62.6454 32.9889 62.5559 33.0438C62.4664 33.0987 62.3886 33.1706 62.3269 33.2556C62.2653 33.3405 62.221 33.4368 62.1965 33.5389C62.172 33.641 62.1679 33.7469 62.1844 33.8506L63.1482 39.8634C63.1755 40.0341 63.2575 40.1914 63.3819 40.3116C63.5062 40.4318 63.6662 40.5085 63.8377 40.5301C64.0093 40.5517 64.1833 40.517 64.3335 40.4313C64.4838 40.3456 64.6021 40.2135 64.6709 40.0549L65.9844 37.0178L67.2979 40.0549C67.3667 40.2135 67.4851 40.3456 67.6353 40.4313C67.7855 40.517 67.9595 40.5517 68.1311 40.5301C68.3027 40.5085 68.4627 40.4318 68.587 40.3116C68.7113 40.1914 68.7933 40.0341 68.8206 39.8634L69.7803 33.8506C69.8012 33.7318 69.795 33.6099 69.7621 33.4939C69.7293 33.378 69.6706 33.2709 69.5905 33.1808C69.5104 33.0907 69.411 33.0199 69.2997 32.9737C69.1883 32.9274 69.068 32.907 68.9476 32.9138L68.9445 32.9117ZM45.598 42.4872C46.3819 44.0449 47.4765 45.4256 48.8141 46.5443C50.1518 47.6631 51.7042 48.4962 53.376 48.9924C52.2158 46.9876 51.4492 44.7797 51.1174 42.4872H45.598ZM53.0689 42.4872C53.862 46.6006 55.4097 49.3514 56.8804 49.5169C56.9742 49.5253 57.0686 49.5253 57.1625 49.5169C58.6342 49.3504 60.1808 46.6026 60.9739 42.4872H53.0689ZM62.9265 42.4872C62.5947 44.7797 61.8281 46.9876 60.6679 48.9924C62.3399 48.4963 63.8925 47.6632 65.2304 46.5445C66.5682 45.4258 67.6629 44.045 68.447 42.4872H62.9265Z" fill="#A0576F"/>
</svg>
