<svg width="114" height="75" viewBox="0 0 114 75" fill="none" xmlns="http://www.w3.org/2000/svg">
<path d="M95.7551 0.897949H17.6939C7.92182 0.897949 0 8.81977 0 18.5918V57.102C0 66.8741 7.92182 74.7959 17.6939 74.7959H95.7551C105.527 74.7959 113.449 66.8741 113.449 57.102V18.5918C113.449 8.81977 105.527 0.897949 95.7551 0.897949Z" fill="#EBE4DF"/>
<path d="M51.2011 25.1704C49.3042 25.1732 47.4859 25.9282 46.1451 27.2698C44.8042 28.6115 44.0502 30.4302 44.0486 32.3271V42.552C44.0513 44.4489 44.8064 46.2672 46.148 47.608C47.4897 48.9489 49.3084 49.7029 51.2052 49.7045H61.4302C63.3271 49.7018 65.1453 48.9468 66.4862 47.6051C67.8271 46.2634 68.5811 44.4447 68.5827 42.5479V32.3229C68.5799 30.4253 67.8244 28.6064 66.4818 27.2654C65.1392 25.9244 63.3194 25.171 61.4219 25.1704H51.2011ZM63.4681 29.2587C63.6703 29.2587 63.8679 29.3187 64.036 29.431C64.2041 29.5433 64.3351 29.7029 64.4124 29.8897C64.4898 30.0764 64.51 30.282 64.4706 30.4802C64.4311 30.6785 64.3338 30.8606 64.1909 31.0035C64.0479 31.1465 63.8658 31.2438 63.6675 31.2833C63.4693 31.3227 63.2638 31.3025 63.077 31.2251C62.8902 31.1477 62.7306 31.0167 62.6183 30.8487C62.506 30.6806 62.4461 30.483 62.4461 30.2808C62.4461 30.0097 62.5537 29.7498 62.7454 29.5581C62.9371 29.3664 63.1971 29.2587 63.4681 29.2587ZM56.3136 31.3029C57.5265 31.3029 58.7121 31.6626 59.7206 32.3364C60.7291 33.0103 61.5151 33.968 61.9792 35.0886C62.4434 36.2092 62.5648 37.4422 62.3282 38.6318C62.0916 39.8214 61.5075 40.9141 60.6499 41.7717C59.7922 42.6294 58.6995 43.2134 57.51 43.45C56.3204 43.6867 55.0873 43.5652 53.9668 43.1011C52.8462 42.6369 51.8884 41.8509 51.2146 40.8424C50.5407 39.8339 50.1811 38.6483 50.1811 37.4354C50.1833 35.8096 50.8301 34.2511 51.9797 33.1015C53.1293 31.9519 54.6878 31.3051 56.3136 31.3029ZM56.3136 33.3471C55.505 33.3471 54.7145 33.5868 54.0422 34.0361C53.3699 34.4853 52.8459 35.1238 52.5364 35.8709C52.227 36.6179 52.146 37.4399 52.3038 38.233C52.4615 39.026 52.8509 39.7545 53.4227 40.3263C53.9944 40.898 54.7229 41.2874 55.516 41.4452C56.309 41.6029 57.1311 41.5219 57.8781 41.2125C58.6251 40.9031 59.2637 40.3791 59.7129 39.7067C60.1621 39.0344 60.4019 38.244 60.4019 37.4354C60.4019 36.3511 59.9712 35.3112 59.2044 34.5445C58.4377 33.7778 57.3979 33.3471 56.3136 33.3471Z" fill="#A0576F"/>
</svg>
