<svg width="115" height="74" viewBox="0 0 115 74" fill="none" xmlns="http://www.w3.org/2000/svg">
<path d="M96.5305 0H18.4693C8.69721 0 0.775391 7.92182 0.775391 17.6939V56.2041C0.775391 65.9761 8.69721 73.898 18.4693 73.898H96.5305C106.303 73.898 114.224 65.9761 114.224 56.2041V17.6939C114.224 7.92182 106.303 0 96.5305 0Z" fill="#EBE4DF"/>
<path d="M57.984 24.9795C56.1597 24.981 54.3579 25.383 52.7059 26.1571C51.0539 26.9312 49.5919 28.0585 48.4233 29.4594C47.2547 30.8603 46.4079 32.5007 45.9426 34.2648C45.4774 36.0288 45.4051 37.8735 45.7308 39.6686C46.0565 41.4636 46.7723 43.1653 47.8277 44.6534C48.8831 46.1415 50.2523 47.3798 51.8386 48.2808C53.4249 49.1819 55.1897 49.7237 57.0084 49.868C58.827 50.0123 60.6552 49.7556 62.3638 49.116C62.5273 49.0665 62.679 48.9839 62.8093 48.8735C62.9397 48.763 63.046 48.6269 63.1216 48.4737C63.1973 48.3205 63.2407 48.1534 63.2492 47.9828C63.2577 47.8121 63.2311 47.6415 63.171 47.4815C63.111 47.3216 63.0187 47.1756 62.9 47.0527C62.7812 46.9299 62.6385 46.8327 62.4807 46.7671C62.3229 46.7016 62.1533 46.6692 61.9825 46.6718C61.8116 46.6745 61.6431 46.7121 61.4874 46.7825C59.4978 47.5295 57.3217 47.6214 55.2762 47.0448C53.2307 46.4683 51.4229 45.2534 50.1163 43.5773C48.8098 41.9012 48.0728 39.8516 48.0128 37.7272C47.9528 35.6029 48.573 33.5149 49.783 31.7678C50.9929 30.0207 52.7293 28.7057 54.739 28.0147C56.7486 27.3236 58.9265 27.2926 60.9551 27.9262C62.9836 28.5597 64.7568 29.8247 66.0159 31.5367C67.2751 33.2486 67.9545 35.3181 67.955 37.4433V38.6922C67.955 39.3534 67.6924 39.9874 67.2249 40.4549C66.7574 40.9224 66.1234 41.185 65.4623 41.185C64.8012 41.185 64.1671 40.9224 63.6996 40.4549C63.2322 39.9874 62.9695 39.3534 62.9695 38.6922V32.4578C62.9638 32.1466 62.8421 31.8488 62.6284 31.6227C62.4146 31.3966 62.1241 31.2584 61.8138 31.2352C61.5035 31.212 61.1957 31.3055 60.9507 31.4974C60.7057 31.6893 60.5412 31.9657 60.4893 32.2725C59.591 31.5859 58.4922 31.213 57.3616 31.2109C54.184 31.2109 51.7527 34.1022 51.7527 37.4422C51.7527 40.7822 54.183 43.6736 57.3616 43.6736C58.1541 43.6659 58.9349 43.4813 59.6469 43.1332C60.3589 42.7851 60.9842 42.2824 61.477 41.6617C62.1008 42.5032 62.9743 43.1264 63.973 43.4423C64.9717 43.7583 66.0446 43.751 67.039 43.4215C68.0333 43.0919 68.8982 42.4569 69.5105 41.607C70.1227 40.7571 70.4511 39.7356 70.4488 38.6881V37.4391C70.4428 34.1356 69.1274 30.9691 66.791 28.6337C64.4545 26.2982 61.2876 24.9842 57.984 24.9795ZM57.3595 33.7036C58.2655 33.7936 59.0997 34.236 59.6826 34.9353C60.2655 35.6346 60.5504 36.5349 60.4757 37.4422C60.5504 38.3495 60.2655 39.2499 59.6826 39.9492C59.0997 40.6485 58.2655 41.0908 57.3595 41.1808C56.4536 41.0908 55.6193 40.6485 55.0364 39.9492C54.4535 39.2499 54.1687 38.3495 54.2433 37.4422C54.1687 36.5347 54.4537 35.6343 55.0368 34.9349C55.6199 34.2356 56.4545 33.7934 57.3606 33.7036H57.3595Z" fill="#A0576F"/>
</svg>
