<svg width="114" height="75" viewBox="0 0 114 75" fill="none" xmlns="http://www.w3.org/2000/svg">
<path d="M96.3061 0.897949H18.2449C8.47285 0.897949 0.551025 8.81977 0.551025 18.5918V57.102C0.551025 66.8741 8.47285 74.7959 18.2449 74.7959H96.3061C106.078 74.7959 114 66.8741 114 57.102V18.5918C114 8.81977 106.078 0.897949 96.3061 0.897949Z" fill="#EBE4DF"/>
<path d="M43.2246 52.866L45.3062 45.0901C43.6294 42.0603 43.1014 38.5274 43.8193 35.1397C44.5372 31.7521 46.4528 28.737 49.2145 26.6478C51.9762 24.5587 55.3987 23.5356 58.8538 23.7664C62.309 23.9972 65.5651 25.4663 68.0244 27.9042C70.4837 30.342 71.9813 33.5851 72.2423 37.0381C72.5033 40.4911 71.5102 43.9225 69.4453 46.7023C67.3804 49.4822 64.3822 51.4241 61.001 52.1716C57.6198 52.9192 54.0823 52.4222 51.038 50.7719L43.2246 52.866ZM51.4294 47.8586L51.9217 48.1522C54.3732 49.6121 57.2742 50.1245 60.0775 49.5926C62.8808 49.0607 65.3926 47.5214 67.139 45.2649C68.8853 43.0085 69.7456 40.1909 69.5574 37.3438C69.3693 34.4967 68.1457 31.8169 66.1176 29.8099C64.0894 27.8029 61.397 26.6074 58.548 26.4491C55.6991 26.2908 52.8907 27.1804 50.6527 28.9504C48.4146 30.7203 46.9016 33.248 46.3991 36.0567C45.8966 38.8655 46.4394 41.761 47.9249 44.197L48.2268 44.6925L47.0631 49.0337L51.4294 47.8586Z" fill="#A0576F"/>
<path fill-rule="evenodd" clip-rule="evenodd" d="M63.2057 40.1492C62.9202 39.9218 62.5867 39.7619 62.2306 39.6817C61.8744 39.6015 61.5046 39.603 61.1491 39.6861C60.6151 39.9046 60.2738 40.7415 59.9282 41.1682C59.8542 41.2685 59.746 41.3383 59.6242 41.3645C59.5023 41.3908 59.375 41.3717 59.2663 41.3108C57.3128 40.545 55.6749 39.1422 54.618 37.3296C54.5285 37.2151 54.4861 37.0708 54.4995 36.9262C54.5128 36.7815 54.5809 36.6473 54.6898 36.5511C55.0857 36.1755 55.3767 35.703 55.5339 35.1804C55.5641 34.6148 55.4334 34.0522 55.1571 33.5577C54.9387 32.8539 54.5229 32.2275 53.9591 31.753C53.6687 31.6185 53.3453 31.5719 53.0287 31.6188C52.7121 31.6658 52.4161 31.8043 52.1772 32.0173C51.767 32.371 51.4413 32.8122 51.2243 33.3085C51.0072 33.8048 50.9043 34.3434 50.9231 34.8848C50.9262 35.1913 50.9639 35.4964 51.0355 35.7944C51.227 36.5035 51.5208 37.1809 51.9077 37.8053C52.1872 38.2824 52.4912 38.7448 52.8184 39.1906C53.8875 40.6575 55.2306 41.9034 56.7735 42.8595C57.5473 43.3429 58.3739 43.7361 59.2371 44.0315C60.1351 44.4377 61.1261 44.5942 62.1056 44.4842C62.664 44.3976 63.1928 44.1761 63.6462 43.839C64.0996 43.5018 64.464 43.0591 64.7076 42.5494C64.8465 42.2398 64.8882 41.8954 64.8274 41.5616C64.6764 40.883 63.7553 40.4813 63.2057 40.1492Z" fill="#A0576F"/>
</svg>
