<svg width="25" height="25" viewBox="0 0 25 25" fill="none" xmlns="http://www.w3.org/2000/svg">
<path d="M16.604 0.36377H8.3841C3.84437 0.36377 0.164185 3.9654 0.164185 8.40825V16.4527C0.164185 20.8956 3.84437 24.4972 8.3841 24.4972H16.604C21.1437 24.4972 24.8239 20.8956 24.8239 16.4527V8.40825C24.8239 3.9654 21.1437 0.36377 16.604 0.36377Z" fill="#D3E8E1"/>
<mask id="mask0_2124_5979" style="mask-type:luminance" maskUnits="userSpaceOnUse" x="4" y="4" width="17" height="17">
<path d="M20.714 4.38623H4.27417V20.4752H20.714V4.38623Z" fill="white"/>
</mask>
<g mask="url(#mask0_2124_5979)">
<path d="M4.99865 4.38624C4.85353 4.38557 4.71155 4.42758 4.59111 4.50682C4.47067 4.58606 4.37733 4.69888 4.32318 4.83065C4.26903 4.96242 4.25658 5.10708 4.28743 5.24586C4.31828 5.38464 4.39102 5.51115 4.49621 5.609L18.2337 19.0503H13.2196C13.0273 19.0503 12.843 19.1251 12.707 19.2581C12.5711 19.3911 12.4947 19.5716 12.4947 19.7597C12.4947 19.9479 12.5711 20.1283 12.707 20.2614C12.843 20.3944 13.0273 20.4692 13.2196 20.4692H19.8911C20.0024 20.4842 20.1157 20.4737 20.2221 20.4385C20.3285 20.4033 20.4251 20.3443 20.5042 20.2663C20.5834 20.1883 20.6429 20.0933 20.678 19.9889C20.7132 19.8845 20.7231 19.7735 20.7069 19.6647V13.1406C20.7069 12.9525 20.6305 12.772 20.4946 12.639C20.3587 12.506 20.1743 12.4312 19.982 12.4312C19.7898 12.4312 19.6054 12.506 19.4694 12.639C19.3335 12.772 19.2571 12.9525 19.2571 13.1406V18.0478L5.5237 4.60344C5.45617 4.53534 5.37535 4.48121 5.28605 4.44424C5.19674 4.40728 5.10076 4.38824 5.00379 4.38825L4.99865 4.38624Z" fill="#44BB94"/>
</g>
</svg>
