<svg width="17" height="16" viewBox="0 0 17 16" fill="none" xmlns="http://www.w3.org/2000/svg">
<g clip-path="url(#clip0_2175_2901)">
<path d="M8.41249 14.6772C8.91465 14.6772 9.37078 14.4243 9.63274 14.0006C11.4683 11.032 13.6563 7.11956 13.6563 5.33926C13.6563 2.48107 11.304 0.155762 8.41249 0.155762C5.521 0.155762 3.16864 2.48107 3.16864 5.33926C3.16864 7.11956 5.3567 11.032 7.19223 14.0006C7.4542 14.4243 7.91037 14.6772 8.41249 14.6772ZM6.30476 4.98336C6.30476 3.83457 7.2503 2.89995 8.41249 2.89995C9.57468 2.89995 10.5202 3.83457 10.5202 4.98336C10.5202 6.13219 9.57468 7.06681 8.41249 7.06681C7.2503 7.06681 6.30476 6.13222 6.30476 4.98336Z" fill="#6B8B9B"/>
</g>
<defs>
<clipPath id="clip0_2175_2901">
<rect width="15.4986" height="15.4986" fill="white" transform="translate(0.748413 0.155762)"/>
</clipPath>
</defs>
</svg>
