<svg width="20" height="20" viewBox="0 0 20 20" fill="none" xmlns="http://www.w3.org/2000/svg">
<rect width="20" height="20" fill="#D3D3D3"/>
<g id="Branch Details">
<g clip-path="url(#clip0_2021_4508)">
<rect x="-34" y="-334" width="539" height="908" rx="30" fill="#EBE4DF"/>
<g id="Group" style="mix-blend-mode:soft-light" opacity="0.65">
<g id="Clip path group">
<mask id="mask0_2021_4508" style="mask-type:luminance" maskUnits="userSpaceOnUse" x="-82" y="-152" width="145" height="770">
<g id="clippath-11">
<path id="Vector" d="M62.1615 -152H-81.3328V618H62.1615V-152Z" fill="white"/>
</g>
</mask>
<g mask="url(#mask0_2021_4508)">
<g id="Group_2">
<path id="Vector_2" d="M-10.2173 -130.433L-80.4409 -60.2628V36.4079L-61.5399 17.5143V-18.7256H41.106V18.2915L59.9994 37.1707V-60.2628L-10.2173 -130.433ZM41.106 -37.6191H-61.5399V-52.4416L-10.2173 -103.732L41.106 -52.4416V-37.6191Z" fill="#BAA1A9"/>
<path id="Vector_3" d="M59.1006 118.812V76.5476H-61.9182V61.1404L-10.5949 9.86414L40.7277 61.1404V67.443H59.6287V53.3264L-10.5949 -16.8506L-80.8185 53.3264V95.5837H40.2072V110.984L-11.1161 162.26L-62.4317 110.984V104.681H-81.3328V118.812L-11.1161 188.968L59.1006 118.812Z" fill="#BAA1A9"/>
</g>
</g>
</g>
</g>
<g id="Frame 1321317055">
<g id="Frame 68410">
<g id="Frame" clip-path="url(#clip1_2021_4508)">
<g id="Group_3">
<path id="Vector_4" d="M17.5729 13.4691C17.3004 13.3194 16.9582 13.419 16.8086 13.6914C16.6589 13.9638 16.7584 14.306 17.0309 14.4557C17.7013 14.824 18.0859 15.2323 18.0859 15.5759C18.0859 15.9962 17.4904 16.6476 15.819 17.2154C14.1679 17.7764 11.9613 18.0854 9.60588 18.0854C7.25043 18.0854 5.04388 17.7764 3.39272 17.2154C1.72138 16.6476 1.1259 15.9962 1.1259 15.5759C1.1259 15.2323 1.51043 14.824 2.18087 14.4556C2.45332 14.306 2.55283 13.9638 2.40315 13.6913C2.25348 13.4189 1.91139 13.3194 1.63887 13.4691C0.891354 13.8797 0.000244141 14.5786 0.000244141 15.5759C0.000244141 16.3404 0.526003 17.4303 3.0306 18.2813C4.79533 18.8808 7.13048 19.211 9.60588 19.211C12.0813 19.211 14.4164 18.8808 16.1812 18.2813C18.6858 17.4303 19.2115 16.3404 19.2115 15.5759C19.2115 14.5786 18.3204 13.8797 17.5729 13.4691Z" fill="#5B605C"/>
<path id="Vector_5" d="M5.35656 16.4026C6.49911 16.7254 8.0082 16.9031 9.60585 16.9031C11.2035 16.9031 12.7126 16.7254 13.8551 16.4026C15.253 16.0078 15.9617 15.4362 15.9617 14.7038C15.9617 13.9714 15.253 13.3999 13.8551 13.005C13.5448 12.9174 13.2074 12.8405 12.8486 12.7749C12.647 13.123 12.4428 13.4695 12.2361 13.8146C12.6332 13.8741 13.0061 13.9472 13.3447 14.0335C14.3734 14.2955 14.7492 14.5904 14.8265 14.7038C14.7492 14.8173 14.3734 15.1122 13.3447 15.3742C12.3711 15.6222 11.1184 15.7636 9.79898 15.7763C9.73472 15.7811 9.6703 15.7836 9.60585 15.7837C9.54098 15.7837 9.47663 15.781 9.41269 15.7763C8.0933 15.7636 6.84059 15.6222 5.86694 15.3742C4.83823 15.1122 4.46245 14.8172 4.38519 14.7038C4.46245 14.5904 4.83827 14.2955 5.86697 14.0335C6.20557 13.9472 6.57843 13.8741 6.9756 13.8146C6.76213 13.4581 6.55798 13.1115 6.36313 12.7749C6.00434 12.8405 5.66683 12.9174 5.35656 13.005C3.95875 13.3999 3.25 13.9714 3.25 14.7038C3.25 15.4362 3.95875 16.0077 5.35656 16.4026Z" fill="#5B605C"/>
<path id="Vector_6" d="M9.60609 14.6579C10.1071 14.6579 10.5622 14.4026 10.8236 13.9749C12.6551 10.9785 14.8382 7.02949 14.8382 5.23252C14.8382 2.34756 12.4911 0.000488281 9.60609 0.000488281C6.7211 0.000488281 4.37402 2.34756 4.37402 5.23252C4.37402 7.02949 6.55717 10.9785 8.38858 13.9749C8.64996 14.4026 9.1051 14.6579 9.60609 14.6579ZM7.5031 4.87328C7.5031 3.71374 8.44651 2.77036 9.60609 2.77036C10.7657 2.77036 11.7091 3.71374 11.7091 4.87328C11.7091 6.03286 10.7657 6.97624 9.60609 6.97624C8.44651 6.97624 7.5031 6.0329 7.5031 4.87328Z" fill="#5B605C"/>
</g>
</g>
</g>
</g>
</g>
</g>
<defs>
<clipPath id="clip0_2021_4508">
<rect x="-34" y="-334" width="539" height="908" rx="30" fill="white"/>
</clipPath>
<clipPath id="clip1_2021_4508">
<rect width="19.2113" height="19.2113" fill="white"/>
</clipPath>
</defs>
</svg>
