<svg width="17" height="17" viewBox="0 0 17 17" fill="none" xmlns="http://www.w3.org/2000/svg">
<path d="M8.09356 0.314453C3.67533 0.314453 0.0495605 3.94022 0.0495605 8.35845C0.0495605 12.7767 3.67533 16.4024 8.09356 16.4024C12.5118 16.4024 16.1376 12.7767 16.1376 8.35845C16.1376 3.94022 12.5118 0.314453 8.09356 0.314453ZM11.7596 4.02581C11.9437 3.84174 12.2421 3.84174 12.4262 4.02581C12.6103 4.20988 12.6103 4.5083 12.4262 4.69237C12.2421 4.87643 11.9437 4.87643 11.7596 4.69237C11.5756 4.5083 11.5756 4.20988 11.7596 4.02581ZM7.62223 2.70251C7.62223 2.442 7.83304 2.23119 8.09356 2.23119C8.35407 2.23119 8.56488 2.442 8.56488 2.70251V3.64517C8.56488 3.90569 8.35407 4.1165 8.09356 4.1165C7.83304 4.1165 7.62223 3.90569 7.62223 3.64517V2.70251ZM2.43762 8.82978C2.1771 8.82978 1.96629 8.61897 1.96629 8.35845C1.96629 8.09793 2.1771 7.88712 2.43762 7.88712H3.38028C3.6408 7.88712 3.8516 8.09793 3.8516 8.35845C3.8516 8.61897 3.6408 8.82978 3.38028 8.82978H2.43762ZM4.42747 12.6911C4.2434 12.8752 3.94499 12.8752 3.76092 12.6911C3.57685 12.507 3.57685 12.2086 3.76092 12.0245C3.94499 11.8404 4.2434 11.8404 4.42747 12.0245C4.61154 12.2086 4.61154 12.507 4.42747 12.6911ZM4.42747 4.69237C4.2434 4.87643 3.94499 4.87643 3.76092 4.69237C3.57685 4.5083 3.57685 4.20988 3.76092 4.02581C3.94499 3.84174 4.2434 3.84174 4.42747 4.02581C4.61154 4.20988 4.61154 4.5083 4.42747 4.69237ZM8.56488 14.0144C8.56488 14.2749 8.35407 14.4857 8.09356 14.4857C7.83304 14.4857 7.62223 14.2749 7.62223 14.0144V13.0717C7.62223 12.8112 7.83304 12.6004 8.09356 12.6004C8.35407 12.6004 8.56488 12.8112 8.56488 13.0717V14.0144ZM11.2548 11.5196C11.0707 11.7037 10.7724 11.7037 10.5883 11.5196L7.7603 8.69168C7.71652 8.64793 7.68179 8.59598 7.6581 8.5388C7.63441 8.48162 7.62222 8.42034 7.62223 8.35845V5.53048C7.62223 5.26996 7.83304 5.05915 8.09356 5.05915C8.35407 5.05915 8.56488 5.26996 8.56488 5.53048V8.16329L11.2548 10.8532C11.4389 11.0373 11.4389 11.3355 11.2548 11.5196ZM12.4262 12.6911C12.2421 12.8752 11.9437 12.8752 11.7596 12.6911C11.5756 12.507 11.5756 12.2086 11.7596 12.0245C11.9437 11.8404 12.2421 11.8404 12.4262 12.0245C12.6102 12.2086 12.6102 12.507 12.4262 12.6911ZM14.2208 8.35845C14.2208 8.61897 14.01 8.82978 13.7495 8.82978H12.8068C12.5463 8.82978 12.3355 8.61897 12.3355 8.35845C12.3355 8.09793 12.5463 7.88712 12.8068 7.88712H13.7495C14.01 7.88712 14.2208 8.09793 14.2208 8.35845Z" fill="#EBE4DF"/>
</svg>
